<svg width="512" height="512" viewBox="0 0 512 512" fill="none" xmlns="http://www.w3.org/2000/svg">
<g clip-path="url(#clip0_309_81)">
<rect width="512" height="512" rx="256" fill="#B4CCB9"/>
<mask id="mask0_309_81" style="mask-type:luminance" maskUnits="userSpaceOnUse" x="0" y="0" width="512" height="512">
<path d="M512 0H0V512H512V0Z" fill="white"/>
</mask>
<g mask="url(#mask0_309_81)">
<path d="M390.51 110.757L256 149.197L121.49 110.757C115.49 109.057 108.97 110.252 103.95 114.022C98.95 117.807 96 123.727 96 129.997V369.997C96 378.922 101.92 386.772 110.51 389.237L250.51 429.237C252.31 429.742 254.145 429.997 256 429.997C257.855 429.997 259.69 429.742 261.49 429.237L401.49 389.237C410.08 386.772 416 378.922 416 369.997V129.997C416 123.727 413.05 117.807 408.05 114.022C403.03 110.252 396.525 109.057 390.51 110.757ZM136 156.522L236 185.097V383.477L136 354.917V156.522ZM376 354.917L276 383.472V185.097L376 156.522V354.917Z" fill="#394240"/>
<path d="M136 354.917L236 383.472V185.096L136 156.521V354.917Z" fill="#F9EBB2"/>
<path d="M276 185.096V383.472L376 354.917V156.521L276 185.096Z" fill="#F9EBB2"/>
<path opacity="0.15" d="M276 185.096V383.472L376 354.917V156.521L276 185.096Z" fill="#231F20"/>
</g>
</g>
<defs>
<clipPath id="clip0_309_81">
<rect width="512" height="512" rx="256" fill="white"/>
</clipPath>
</defs>
</svg>
